<svg version="1.1" id="Layer_1" xmlns="http://www.w3.org/2000/svg" xmlns:xlink="http://www.w3.org/1999/xlink" x="0px" y="0px"
	 width="100%" viewBox="0 0 1024 1024" enable-background="new 0 0 1024 1024" xml:space="preserve">
<path fill="#000000" opacity="1.000000" stroke="none" 
	d="
M438.999878,751.374695 
	C418.667023,751.369263 398.834167,751.379395 379.001343,751.351318 
	C368.244843,751.336121 361.660156,744.713135 361.658447,733.868469 
	C361.645172,649.037170 361.657410,564.205933 361.610260,479.374695 
	C361.608948,476.991211 362.418030,474.380463 360.371674,471.987549 
	C355.150696,475.140167 351.365356,479.839081 346.926910,483.765320 
	C342.336456,487.825989 337.150757,490.154114 330.925354,488.998291 
	C324.528137,487.810516 320.036682,484.186005 317.948578,477.908234 
	C315.601959,470.853333 317.398651,464.583313 322.526367,459.574860 
	C332.418640,449.912811 342.588531,440.533722 352.690552,431.087830 
	C402.957611,384.085571 453.240326,337.100037 503.516785,290.107819 
	C527.377258,267.806000 551.215271,245.480087 575.107483,223.212265 
	C582.972412,215.882050 591.608765,215.946838 599.564697,223.304932 
	C665.011353,283.833862 730.436768,344.385773 795.885498,404.912476 
	C815.335938,422.900238 834.834045,440.836548 854.323792,458.781738 
	C859.133667,463.210449 862.135864,468.506439 860.907654,475.160187 
	C858.388428,488.808167 843.486633,493.763031 832.754456,484.610596 
	C828.447144,480.937286 824.381775,476.981537 820.157898,473.208557 
	C818.717468,471.921967 817.586853,470.067261 815.157166,470.095123 
	C813.268066,472.206726 814.030334,474.824066 814.029724,477.202789 
	C814.010254,560.033875 814.044739,642.864929 814.061035,725.695984 
	C814.061707,728.860962 814.185303,732.049255 813.862366,735.186646 
	C812.807190,745.436523 806.184265,751.356323 795.856873,751.360413 
	C744.524780,751.380676 693.192688,751.374695 641.860596,751.369324 
	C630.603699,751.368164 625.003906,745.894836 624.934326,734.515625 
	C624.831299,717.683533 624.898499,700.850220 624.903687,684.017456 
	C624.909363,665.518005 624.793945,647.016846 625.030823,628.520264 
	C625.091858,623.758118 623.648560,622.178406 618.801819,622.229492 
	C597.804749,622.450806 576.802795,622.428955 555.805298,622.225220 
	C551.409912,622.182617 550.084229,623.533752 550.102112,627.913452 
	C550.244385,662.745239 550.183289,697.577881 550.156555,732.410278 
	C550.146179,745.870911 544.567627,751.366577 530.996277,751.369690 
	C500.497498,751.376709 469.998688,751.373413 438.999878,751.374695 
M422.675293,411.180573 
	C414.007782,419.229706 405.407837,427.353638 396.629303,435.279816 
	C394.174194,437.496582 393.275238,439.865936 393.277649,443.122986 
	C393.344574,533.438904 393.357727,623.754883 393.251312,714.070679 
	C393.246277,718.353516 394.364716,719.901855 398.837494,719.883057 
	C436.996124,719.722595 475.155884,719.693237 513.314453,719.842468 
	C517.966614,719.860657 519.689575,718.142578 519.573181,713.794250 
	C519.386047,706.802734 519.116882,699.809326 519.134399,692.817322 
	C519.205017,664.685425 519.455383,636.553772 519.465637,608.421997 
	C519.470093,596.107788 524.553162,590.790649 536.948730,590.790466 
	C570.775513,590.789978 604.602234,590.785522 638.429016,590.768250 
	C650.542297,590.762085 656.126038,596.248108 656.140564,608.458984 
	C656.182312,643.452148 656.232849,678.445679 656.086609,713.438171 
	C656.067444,718.017395 657.105042,719.871338 662.137756,719.846436 
	C700.129517,719.658936 738.122559,719.755554 776.115234,719.738464 
	C782.360901,719.735657 782.639038,719.445801 782.639709,713.240723 
	C782.649658,623.258057 782.628601,533.275330 782.713745,443.292694 
	C782.717163,439.632782 781.577148,437.073120 778.900696,434.622009 
	C758.996094,416.393280 739.196167,398.050201 719.376282,379.729034 
	C676.433655,340.033569 633.474304,300.356110 590.619202,260.566376 
	C587.942139,258.080811 586.331177,258.437012 584.053711,260.744019 
	C581.014038,263.823059 577.717529,266.647644 574.549316,269.600830 
	C524.095276,316.631195 473.644135,363.664673 422.675293,411.180573 
z"/>
<path fill="#000000" opacity="1.000000" stroke="none" 
	d="
M248.000000,483.997559 
	C258.496826,483.990173 268.496246,483.840820 278.489502,484.026184 
	C284.978333,484.146545 290.628723,486.186249 293.620880,492.667511 
	C296.394501,498.675323 295.777893,504.314087 291.771515,509.558533 
	C288.717407,513.556458 284.519806,515.348328 279.601959,515.351257 
	C230.283798,515.380493 180.965591,515.397888 131.647491,515.342041 
	C123.585136,515.332947 117.370911,509.637848 116.681160,502.069702 
	C115.825981,492.686462 120.430771,486.076050 129.081360,484.509766 
	C131.355240,484.098022 133.714386,484.023315 136.034561,484.021454 
	C173.189697,483.991669 210.344849,483.998871 248.000000,483.997559 
z"/>
<path fill="#000000" opacity="1.000000" stroke="none" 
	d="
M269.000031,386.616608 
	C293.316986,386.616089 317.133881,386.609192 340.950806,386.616760 
	C351.010254,386.619965 357.307129,392.535828 357.344818,401.979980 
	C357.382172,411.340607 351.050415,417.350037 340.958679,417.356842 
	C298.320923,417.385498 255.683151,417.392426 213.045425,417.358612 
	C205.024246,417.352234 198.940277,412.375885 197.694672,405.078888 
	C196.326492,397.063843 199.868332,390.242157 206.664444,387.482605 
	C208.764221,386.630005 210.883224,386.626068 213.038330,386.624634 
	C231.525558,386.612183 250.012772,386.616669 269.000031,386.616608 
z"/>
<path fill="#000000" opacity="1.000000" stroke="none" 
	d="
M248.000000,580.837097 
	C267.482819,580.839294 286.466095,580.760071 305.448273,580.870911 
	C317.489441,580.941223 324.422485,588.729431 322.380859,599.551025 
	C321.147980,606.085876 316.612976,610.489014 310.014374,611.445984 
	C308.045135,611.731567 306.044800,611.949219 304.058624,611.950012 
	C266.759583,611.965149 229.460526,611.951355 192.161469,611.923218 
	C181.617569,611.915283 176.686005,608.641296 174.338013,600.203125 
	C172.062500,592.025452 176.917694,583.596069 185.139465,581.721436 
	C187.549835,581.171875 190.075607,580.905579 192.550064,580.895508 
	C210.866486,580.820862 229.183304,580.843872 248.000000,580.837097 
z"/>
<path fill="#000000" opacity="1.000000" stroke="none" 
	d="
M557.990479,497.647461 
	C562.984558,497.640778 567.481079,497.661499 571.976929,497.615021 
	C573.886780,497.595276 575.256531,498.051666 575.255371,500.320679 
	C575.246460,517.780151 575.250488,535.239563 575.250488,553.072876 
	C550.959595,553.072876 527.073425,553.072876 502.820312,553.072876 
	C502.820312,534.842773 502.820312,516.621155 502.820312,497.647736 
	C521.012756,497.647736 539.252686,497.647736 557.990479,497.647461 
z"/>
<path fill="#000000" opacity="1.000000" stroke="none" 
	d="
M575.297974,455.000061 
	C575.297302,463.331909 575.209717,471.165192 575.338257,478.994873 
	C575.390259,482.164062 574.281921,483.434326 571.003418,483.421143 
	C549.507874,483.334900 528.011780,483.381622 506.515900,483.393311 
	C504.225220,483.394562 502.215668,483.392944 502.232025,480.094696 
	C502.316986,462.947540 502.271576,445.799805 502.271576,429.105865 
	C504.285126,427.134094 506.221436,427.675995 507.977539,427.672211 
	C528.473511,427.628296 548.970947,427.763611 569.464783,427.548584 
	C574.062134,427.500336 575.610352,428.933136 575.397400,433.507935 
	C575.072266,440.491730 575.303162,447.501373 575.297974,455.000061 
z"/>
<path fill="#000000" opacity="1.000000" stroke="none" 
	d="
M600.657959,503.102966 
	C600.257996,499.111938 601.470276,497.544495 605.336548,497.569672 
	C626.636719,497.708405 647.938354,497.653778 669.239258,497.588715 
	C671.735718,497.581085 673.382935,497.866058 673.364624,500.980347 
	C673.265930,517.786804 673.288513,534.593933 673.245972,551.400818 
	C673.244751,551.865601 672.981873,552.329651 672.874512,552.683594 
	C671.971741,553.578125 670.939941,553.417908 669.956848,553.420898 
	C648.158630,553.486755 626.359680,553.472717 604.562866,553.680481 
	C600.829163,553.716064 600.607361,551.829773 600.617981,549.023865 
	C600.675476,533.880310 600.651428,518.736450 600.657959,503.102966 
z"/>
<path fill="#000000" opacity="1.000000" stroke="none" 
	d="
M623.000000,483.388123 
	C616.510254,483.381104 610.519653,483.313995 604.531006,483.392822 
	C601.810303,483.428619 600.640991,482.353821 600.651062,479.574524 
	C600.709045,463.601898 600.724609,447.628693 600.642273,431.656311 
	C600.626343,428.573273 601.971130,427.622528 604.853638,427.630249 
	C626.317139,427.687744 647.780884,427.697540 669.244263,427.629822 
	C672.224304,427.620422 673.382690,428.707520 673.367493,431.717468 
	C673.287659,447.523560 673.248047,463.331085 673.397278,479.136200 
	C673.433472,482.970612 671.491821,483.426849 668.423828,483.412537 
	C653.449524,483.342682 638.474670,483.384918 623.000000,483.388123 
z"/>
</svg>